<?xml version="1.0" encoding="UTF-8" standalone="no"?>
<svg width="11px" height="13px" viewBox="0 0 11 13" version="1.1" xmlns="http://www.w3.org/2000/svg" xmlns:xlink="http://www.w3.org/1999/xlink" xmlns:sketch="http://www.bohemiancoding.com/sketch/ns">
    <!-- Generator: Sketch 3.3.1 (12002) - http://www.bohemiancoding.com/sketch -->
    <title>Imported Layers</title>
    <desc>Created with Sketch.</desc>
    <defs></defs>
    <g id="Page-1" stroke="none" stroke-width="1" fill="none" fill-rule="evenodd" sketch:type="MSPage">
        <g id="Desktop-HD" sketch:type="MSArtboardGroup" transform="translate(-552.000000, -593.000000)" fill="#25B7D3">
            <g id="Imported-Layers-+-Imported-Layers-+-Imported-Layers" sketch:type="MSLayerGroup" transform="translate(506.500000, 565.500000)">
                <g id="Imported-Layers" transform="translate(45.556886, 27.544910)" sketch:type="MSShapeGroup">
                    <path d="M9.97320359,5.71661677 L5.38922156,1.13263473 L0.805239521,5.71661677 L0.150449102,5.06182635 L5.06182635,0.150449102 C5.24236527,-0.0300898204 5.53607784,-0.0300898204 5.71661677,0.150449102 L10.627994,5.06182635 L9.97320359,5.71661677" id="Fill-1"></path>
                    <path d="M6.06287425,11.6766467 C6.06287425,12.048503 5.76107784,12.3502994 5.38922156,12.3502994 C5.01736527,12.3502994 4.71556886,12.048503 4.71556886,11.6766467 C4.71556886,11.3047904 5.01736527,11.002994 5.38922156,11.002994 C5.76107784,11.002994 6.06287425,11.3047904 6.06287425,11.6766467" id="Fill-2"></path>
                    <path d="M6.06287425,7.18562874 C6.06287425,7.55748503 5.76107784,7.85928144 5.38922156,7.85928144 C5.01736527,7.85928144 4.71556886,7.55748503 4.71556886,7.18562874 C4.71556886,6.81377246 5.01736527,6.51197605 5.38922156,6.51197605 C5.76107784,6.51197605 6.06287425,6.81377246 6.06287425,7.18562874" id="Fill-3"></path>
                </g>
            </g>
        </g>
    </g>
</svg>