<?xml version="1.0" encoding="UTF-8" standalone="no"?>
<svg width="82px" height="83px" viewBox="0 0 82 83" version="1.1" xmlns="http://www.w3.org/2000/svg" xmlns:xlink="http://www.w3.org/1999/xlink" xmlns:sketch="http://www.bohemiancoding.com/sketch/ns">
    <!-- Generator: Sketch 3.3.1 (12002) - http://www.bohemiancoding.com/sketch -->
    <title>Imported Layers</title>
    <desc>Created with Sketch.</desc>
    <defs></defs>
    <g id="Page-1" stroke="none" stroke-width="1" fill="none" fill-rule="evenodd" sketch:type="MSPage">
        <g id="Desktop-HD" sketch:type="MSArtboardGroup" transform="translate(-517.000000, -730.000000)" stroke="#25B7D3">
            <g id="Imported-Layers-+-Imported-Layers" sketch:type="MSLayerGroup" transform="translate(485.000000, 731.000000)">
                <g id="Imported-Layers" transform="translate(32.528267, 0.000000)" sketch:type="MSShapeGroup">
                    <path d="M80.6295524,40.4983007 C80.6295524,62.6452867 62.6775734,80.5972657 40.5305874,80.5972657 C18.3847343,80.5972657 0.432188811,62.6452867 0.432188811,40.4983007 C0.432188811,18.3518811 18.3847343,0.399902098 40.5305874,0.399902098 C62.6775734,0.399902098 80.6295524,18.3518811 80.6295524,40.4983007 L80.6295524,40.4983007 Z M40.5305874,77.6104615 C20.0341888,77.6104615 3.41899301,60.9952657 3.41899301,40.4983007 C3.41899301,20.0019021 20.0341888,3.38670629 40.5305874,3.38670629 C61.0275524,3.38670629 77.6427483,20.0019021 77.6427483,40.4983007 C77.6427483,60.9952657 61.0275524,77.6104615 40.5305874,77.6104615 Z" id="Stroke-1" stroke-width="0.975"></path>
                    <path d="M71.006979,40.4983007 C71.006979,57.3304406 57.3627273,70.9746923 40.5305874,70.9746923 C23.699014,70.9746923 10.0547622,57.3304406 10.0547622,40.4983007 C10.0547622,23.6667273 23.699014,10.0224755 40.5305874,10.0224755 C57.3627273,10.0224755 71.006979,23.6667273 71.006979,40.4983007 L71.006979,40.4983007 Z" id="Stroke-2" stroke-width="4.875"></path>
                </g>
            </g>
        </g>
    </g>
</svg>