<?xml version="1.0" encoding="UTF-8" standalone="no"?>
<svg width="85px" height="88px" viewBox="0 0 85 88" version="1.1" xmlns="http://www.w3.org/2000/svg" xmlns:xlink="http://www.w3.org/1999/xlink" xmlns:sketch="http://www.bohemiancoding.com/sketch/ns">
    <!-- Generator: Sketch 3.3.1 (12002) - http://www.bohemiancoding.com/sketch -->
    <title>Imported Layers Copy + Imported Layers Copy 2</title>
    <desc>Created with Sketch.</desc>
    <defs></defs>
    <g id="Page-1" stroke="none" stroke-width="1" fill="none" fill-rule="evenodd" sketch:type="MSPage">
        <g id="Desktop-HD" sketch:type="MSArtboardGroup" transform="translate(-518.000000, -866.000000)" fill="#25B7D3">
            <g id="Imported-Layers-Copy-+-Imported-Layers-Copy-2" sketch:type="MSLayerGroup" transform="translate(510.000000, 854.500000)">
                <g id="Imported-Layers-Copy" transform="translate(48.011251, 63.907173) rotate(105.000000) translate(-48.011251, -63.907173) translate(11.820775, 23.907173)" sketch:type="MSShapeGroup">
                    <path d="M14.2773508,8.139375 C17.8481445,5.30479167 23.6525561,1.68541667 31.0262616,0.539791667 C36.3273344,-0.28375 41.6999562,0.279583333 46.9958292,2.21458333 C53.0502463,4.426875 59.0534975,8.46166667 64.8387739,14.206875 L65.4007663,14.765 L65.2591242,15.5445833 C65.0812917,16.5239583 64.9421456,17.5720833 64.8443897,18.6654167 C62.8075315,15.9758333 60.3395074,13.5639583 57.5029228,11.4922917 C56.6482868,10.868125 55.7510126,10.26875 54.8431308,9.71583333 C47.144543,4.388125 39.2866338,2.30104167 31.4865463,3.513125 C24.7601095,4.558125 19.4299179,7.888125 16.1430323,10.4975 C12.5121292,13.38 10.3359168,16.1485417 9.36210181,17.5422917 L9.43053093,17.5904167 L9.36210181,17.5422917 C8.91949644,18.175625 8.55655172,18.761875 8.28345922,19.2847917 C7.89971538,20.0197917 6.99016968,20.3054167 6.25658456,19.920625 C5.52258347,19.5360417 5.23784346,18.6254167 5.6215873,17.8904167 C5.82458675,17.501875 6.07896004,17.068125 6.37763547,16.60125 C8.18757526,13.7722917 11.067006,10.6879167 14.2773508,8.139375 L14.2773508,8.139375 Z M14.1288451,40.4520833 C14.1286371,40.4897917 14.1278051,40.529375 14.1271812,40.5679167 C14.1261412,40.6497917 14.1248933,40.7322917 14.1230213,40.8177083 C14.1221894,40.8639583 14.1209414,40.9116667 14.1196935,40.9589583 C14.1178216,41.0410417 14.1157417,41.124375 14.1132458,41.2095833 C14.1117898,41.2591667 14.1101259,41.3091667 14.10867,41.3595833 C14.1057581,41.4485417 14.1026382,41.5391667 14.0991024,41.63125 C14.0974384,41.6797917 14.0955665,41.728125 14.0936946,41.7775 C14.0895348,41.8845833 14.084751,41.9941667 14.0797592,42.1052083 C14.0783032,42.141875 14.0768473,42.1775 14.0749754,42.2145833 C14.0681117,42.3672917 14.060416,42.5229167 14.0520963,42.6827083 C14.0520963,42.684375 14.0518883,42.6860417 14.0518883,42.6875 C14.0448166,42.824375 14.036705,42.9654167 14.0285933,43.1075 C13.9701478,42.5475 13.9225178,41.66 13.9225178,40.528125 C13.9225178,39.2016667 13.987827,38.2108333 14.059584,37.6889583 C14.06104,37.7135417 14.0620799,37.7370833 14.0631199,37.7614583 C14.0676957,37.85125 14.0720635,37.9408333 14.0760153,38.0283333 C14.0774713,38.0575 14.0785112,38.085625 14.0797592,38.1145833 C14.083503,38.1989583 14.0872469,38.2833333 14.0905747,38.3654167 C14.0916147,38.38875 14.0924466,38.41125 14.0932786,38.434375 C14.0966065,38.52 14.0999343,38.6052083 14.1028462,38.688125 C14.1038862,38.71375 14.1045101,38.738125 14.1053421,38.7635417 C14.108046,38.8427083 14.1107499,38.921875 14.1130378,38.9985417 C14.1138697,39.025625 14.1142857,39.0514583 14.1151177,39.0783333 C14.1171976,39.151875 14.1192775,39.2254167 14.1209414,39.2966667 C14.1217734,39.3320833 14.1221894,39.365625 14.1230213,39.4004167 C14.1242693,39.460625 14.1255172,39.5214583 14.1265572,39.58 C14.1273892,39.6379167 14.1280131,39.69375 14.1286371,39.75 C14.1290531,39.7839583 14.1296771,39.8189583 14.1298851,39.8520833 C14.130717,39.940625 14.130925,40.026875 14.130925,40.1108333 C14.130925,40.220625 14.130301,40.3347917 14.1288451,40.4520833 L14.1288451,40.4520833 Z M12.2714833,24.9827083 L13.085145,25.7920833 C13.1433826,26.3189583 13.8043788,32.3710417 14.0714395,37.0264583 C14.0679037,37.02625 14.0649918,37.025 14.0614559,37.025 C13.9522605,37.025 13.6194745,37.025 13.6194745,40.528125 C13.6194745,43.335 13.8330816,43.8925 13.9740996,44.0033333 L13.9071264,45.0595833 L13.989699,44.78375 C13.679792,49.1179167 13.1379748,53.961875 13.085353,54.4295833 L12.2714833,55.2391667 L12.2714833,24.9827083 L12.2714833,24.9827083 Z M64.7797044,25.4716667 C64.9209305,25.6958333 65.0669403,25.9464583 65.2100383,26.2083333 C67.2009305,30.4647917 68.2009524,35.26625 68.1824412,40.4789583 C68.1751615,42.5097917 68.0749097,44.49125 67.8843897,46.369375 C67.4813027,49.4414583 66.7724685,52.6647917 65.7778544,55.9502083 C65.5846305,56.58875 65.0072469,57.0179167 64.3412589,57.0179167 C64.1617625,57.0179167 63.9841379,56.985625 63.8135851,56.9220833 C63.0741762,56.6460417 62.6821128,55.8102083 62.9208867,55.0191667 C65.8974494,45.155 65.5118336,38.0216667 64.6640613,33.774375 C63.7493158,29.191875 62.0982813,26.8627083 62.0803941,26.838125 L61.9460317,26.6570833 C61.869907,26.554375 61.8241489,26.433125 61.8137493,26.3060417 L61.7958621,26.0877083 C61.7723591,25.83125 61.5778872,23.5770833 61.7110016,20.5102083 C62.8705528,21.99375 63.8913738,23.591875 64.7482978,25.2660417 L64.7593213,25.4391667 L64.7797044,25.4716667 L64.7797044,25.4716667 Z M2.10611932,31.4604167 C2.10611932,29.6970833 3.53834702,28.2625 5.29878489,28.2625 C7.05922277,28.2625 8.49145047,29.6970833 8.49145047,31.4604167 C8.49145047,33.22375 7.05922277,34.6583333 5.29878489,34.6583333 C3.53834702,34.6583333 2.10611932,33.22375 2.10611932,31.4604167 L2.10611932,31.4604167 Z M0,22.608125 C0,21.2752083 0.437613574,19.9889583 1.23754789,18.95375 L1.23817187,19.26625 L1.2373399,19.756875 C1.23401204,21.5839583 1.22673235,25.390625 1.22714833,30.0047917 C1.05701149,30.4802083 0.97090312,30.97 0.97090312,31.4604167 C0.97090312,31.9395833 1.0592994,32.429375 1.23380405,32.9166667 C1.23442802,41.9747917 1.23900383,52.9775 1.24129174,58.4902083 L1.24253968,61.6366667 C0.428669951,60.5941667 0,59.3566667 0,58.0397917 L0,22.608125 L0,22.608125 Z M1.4559387,61.889375 L1.4559387,33.3964583 C2.20845101,34.8685417 3.67395731,35.7954167 5.30939245,35.7954167 C7.69234811,35.7954167 9.63103448,33.8508333 9.63103448,31.4604167 C9.63103448,29.07 7.69130816,27.1254167 5.30731253,27.1254167 C3.67291735,27.1254167 2.20824302,28.0522917 1.4559387,29.524375 L1.4559387,18.685 C2.50192666,17.3891667 4.19060755,16.6164583 5.98099617,16.6164583 C5.99097975,16.6164583 6.00033935,16.6166667 6.01011494,16.616875 C5.75574165,17.0227083 5.53360701,17.4041667 5.35307061,17.7497917 C4.89195402,18.6329167 5.23409962,19.7275 6.11598248,20.1895833 C6.38221128,20.3291667 6.66799124,20.3954167 6.94961138,20.3954167 C7.60041598,20.3952083 8.23000547,20.0420833 8.55197592,19.4254167 C8.80946907,18.9327083 9.15119869,18.3797917 9.56489327,17.783125 C11.1314833,18.934375 12.0634921,20.7385417 12.0634921,22.633125 L12.0634921,58.1458333 L12.0634921,58.14875 C12.0632841,58.2689583 12.0591242,58.3875 12.0522605,58.505 C11.9418172,60.2645833 11.020208,61.7883333 9.48148878,62.7389583 C9.1081445,62.145625 8.99624521,61.8410417 8.96442255,61.7266667 C8.90535304,60.7220833 7.8637329,60.0233333 6.9564751,60.0233333 C5.961237,60.0233333 5.15547893,60.834375 5.15547893,61.83125 C5.15547893,62.34125 5.34662288,62.9616667 5.70748768,63.675 C3.99883963,63.6120833 2.4249699,62.9539583 1.4559387,61.889375 L1.4559387,61.889375 Z M57.5861193,73.0922917 C50.0327094,78.7164583 41.492381,79.8970833 35.6544828,79.8970833 C26.4899726,79.8970833 19.000832,75.7583333 14.3253968,72.2864583 C10.6807663,69.5797917 7.37807334,66.1345833 6.08332786,63.713125 C5.68440066,62.9670833 5.4506185,62.33375 5.4506185,61.83125 C5.4506185,61.001875 6.12451013,60.326875 6.95273125,60.326875 C7.72666667,60.326875 8.62165298,60.9389583 8.66096333,61.7579167 L8.66553914,61.7883333 C8.73209633,62.0472917 8.94591133,62.4664583 9.26704981,62.96875 L9.26663383,62.9689583 C9.81510673,63.8266667 11.9586645,66.8814583 16.5197044,70.178125 C20.7552381,73.2391667 27.5116256,76.8883333 35.6465791,76.8883333 C39.3977011,76.8883333 46.7100493,76.280625 53.5369458,72.2102083 C62.0329721,67.1452083 66.9613246,58.4620833 68.185145,46.406875 C68.8155665,41.601875 68.7207225,37.1116667 67.9033169,33.060625 C67.8613027,32.8522917 67.8178325,32.6479167 67.7733224,32.4472917 C67.1930268,29.8389583 66.4118117,27.90875 65.7682868,26.6233333 C65.669283,26.425625 65.6008539,26.243125 65.5095457,26.0752083 C65.3716475,25.7810417 65.1012589,25.481875 65.1012589,25.185 L65.1012589,25.184375 L65.0596606,25.1560417 C64.1291078,23.3335417 62.9934756,21.6004167 61.7103777,20.004375 L61.4549644,19.6947917 L61.4510126,19.7047917 C59.7598358,17.6552083 57.7795512,15.7922917 55.5563328,14.1685417 C46.3279693,7.428125 34.889491,6.05395833 28.3610619,8.17979167 C27.573607,8.43666667 26.7239628,8.00291667 26.4679256,7.21416667 C26.3437548,6.83208333 26.3755774,6.424375 26.5577778,6.06625 C26.7397701,5.70833333 27.050093,5.44270833 27.431757,5.31854167 C31.3996059,4.02645833 36.4829119,3.89083333 41.7461303,4.93625 C46.2795074,5.836875 50.7515271,7.57770833 54.6784018,9.97041667 C55.5862835,10.52375 56.476694,11.1183333 57.3242583,11.7372917 C60.2479912,13.8727083 62.7767488,16.3720833 64.8402299,19.1660417 L64.8404379,19.1664583 C65.8094691,20.47875 66.6863602,21.869375 67.4461522,23.299375 C70.1514943,28.3904167 71.5446196,34.1745833 71.5219485,40.490625 C71.5159168,42.191875 71.3409962,43.8816667 71.3409962,45.5139583 L71.3409962,45.5166667 C71.3409962,45.545 71.2823426,45.576875 71.2696552,45.6072917 C71.2607115,45.6291667 71.2332567,45.649375 71.225769,45.6720833 C71.2087137,45.72375 71.1883306,45.778125 71.178971,45.8333333 C71.1773071,45.8425 71.1698194,45.8510417 71.1683634,45.8602083 C71.0978544,46.3525 71.0308812,47.0189583 70.9680679,47.66375 C70.8919431,48.4472917 70.8116585,49.1872917 70.7438533,49.459375 C70.7188944,49.5589583 70.7170224,49.6508333 70.7170224,49.7354167 L70.7170224,49.736875 C70.7170224,49.7633333 70.7330378,49.78875 70.7401095,49.8135417 L70.7421894,49.8225 L70.7453093,49.8258333 C69.0709797,60.0072917 64.646382,67.835 57.5861193,73.0922917 L57.5861193,73.0922917 Z M71.5687466,49.7816667 C71.4691188,49.8372917 71.3615873,49.8677083 71.2663273,49.8677083 C71.2076738,49.8677083 71.1090859,49.8558333 71.059584,49.7816667 C71.0934866,49.5720833 71.1242693,49.3595833 71.156092,49.148125 C71.1750192,49.0216667 71.1956103,48.8966667 71.2137055,48.7695833 C71.2548878,48.48125 71.2925342,48.1902083 71.3293487,47.8989583 C71.3368363,47.8391667 71.345572,47.78 71.3530597,47.7202083 C71.3963218,47.3679167 71.4362562,47.0141667 71.4728626,46.6591667 C71.4830542,46.5616667 71.4909579,46.46375 71.5003175,46.36625 C71.5250684,46.1152083 71.5500274,45.8639583 71.5712425,45.611875 C71.6209524,45.54 71.6791899,45.4991667 71.7340996,45.4991667 C71.8414231,45.4991667 72.0084401,45.651875 72.1550739,46.0804167 C72.5138588,47.1285417 71.8405911,49.6304167 71.5687466,49.7816667 L71.5687466,49.7816667 Z" id="Fill-1"></path>
                    <path d="M8.3196497,51.1345833 L8.3196497,43.8079167 C8.3196497,42.4422917 7.26908593,41.3725 5.92775041,41.3725 C4.58641489,41.3725 3.53585112,42.4422917 3.53585112,43.8079167 L3.53585112,51.1345833 C3.53585112,52.5004167 4.58641489,53.5702083 5.92775041,53.5702083 C7.26908593,53.5702083 8.3196497,52.5004167 8.3196497,51.1345833 L8.3196497,51.1345833 Z M5.92775041,41.8085417 C7.11142857,41.8085417 8.11165846,42.7877083 8.11165846,43.946875 L8.11165846,50.995625 C8.11165846,52.155 7.11142857,53.1341667 5.92775041,53.1341667 C4.74407225,53.1341667 3.74384236,52.155 3.74384236,50.995625 L3.74384236,43.946875 C3.74384236,42.7877083 4.74407225,41.8085417 5.92775041,41.8085417 L5.92775041,41.8085417 Z" id="Fill-2"></path>
                </g>
                <g id="Imported-Layers-Copy-2" transform="translate(79.000000, 20.000000) scale(-1, 1) rotate(-309.000000) translate(-79.000000, -20.000000) translate(67.000000, 4.000000)" sketch:type="MSShapeGroup">
                    <path d="M14.8140759,18.418566 C14.9229873,18.2369811 14.9826835,18.0738113 14.9826835,17.9391698 C14.9826835,4.47622642 21.9037975,1.37237736 23.5658734,0.348830189 C23.8546329,0.180981132 23.8370127,0.110943396 23.5060253,0.110943396 C12.7961013,0.110943396 6.1795443,7.75667925 6.1795443,17.9391698 C6.1795443,18.1055094 6.18410127,18.2650566 6.19260759,18.418566 L0.0173164557,18.418566 L10.5811139,31.858717 L21.1450633,18.418566 L14.8140759,18.418566 L14.8140759,18.418566 Z" id="Fill-1"></path>
                </g>
            </g>
        </g>
    </g>
</svg>