<?xml version="1.0" encoding="UTF-8" standalone="no"?>
<svg width="57px" height="103px" viewBox="0 0 57 103" version="1.1" xmlns="http://www.w3.org/2000/svg" xmlns:xlink="http://www.w3.org/1999/xlink" xmlns:sketch="http://www.bohemiancoding.com/sketch/ns">
    <!-- Generator: Sketch 3.3.1 (12002) - http://www.bohemiancoding.com/sketch -->
    <title>Imported Layers</title>
    <desc>Created with Sketch.</desc>
    <defs></defs>
    <g id="Page-1" stroke="none" stroke-width="1" fill="none" fill-rule="evenodd" sketch:type="MSPage">
        <g id="Desktop-HD" sketch:type="MSArtboardGroup" transform="translate(-529.000000, -564.000000)">
            <g id="Imported-Layers-+-Imported-Layers-+-Imported-Layers" sketch:type="MSLayerGroup" transform="translate(506.500000, 565.500000)">
                <g id="Imported-Layers" transform="translate(24.000000, 0.000000)" sketch:type="MSShapeGroup">
                    <path d="M46.4830037,20.0573713 C41.8396763,17.7773308 43.2172196,16.4107394 42.1443081,5.85562643 C41.8313384,2.77676576 41.6252727,1.91346683 38.2251885,1.29375433 C30.9217673,-0.0376126086 22.415899,-0.120002132 14.6684836,1.29196325 C11.2683994,1.91197427 11.0623337,2.78363155 10.749364,5.86279074 C9.6764525,16.4176051 11.0534002,17.7782263 6.41007283,20.0582668 L46.4830037,20.0573713 Z M6.41007283,80.0653032 C11.0534002,82.3453437 9.67585693,83.7119352 10.7487684,94.2670481 C11.0617381,97.3462073 11.2675061,98.2095062 14.667888,98.8292187 C21.9713093,100.160287 30.4771775,100.242677 38.224593,98.8307113 C41.6246771,98.2109988 41.8304451,97.339043 42.1434148,94.2601823 C43.216624,83.7050694 41.8396763,82.3444482 46.4830037,80.0644077 L6.41007283,80.0653032 Z M43.6585337,80.5166545 L9.23513837,80.5166545 C4.22464476,80.5166545 0.162887199,76.4449404 0.162887199,71.4221646 L0.162887199,28.7008085 C0.162887199,23.6780327 4.22464476,19.6063185 9.23513837,19.6063185 L43.6585337,19.6063185 C48.6690274,19.6063185 52.7307849,23.6780327 52.7307849,28.7008085 L52.7307849,71.4221646 C52.7307849,76.4449404 48.6690274,80.5166545 43.6585337,80.5166545 L43.6585337,80.5166545 Z M52.8108885,33.5620889 L52.8108885,33.5620889 C53.6810099,33.5620889 54.3867551,34.2695641 54.3867551,35.1418184 L54.3867551,42.4326943 C54.3867551,43.3052471 53.6810099,44.0124238 52.8108885,44.0124238 L52.8108885,33.5620889 L52.8108885,33.5620889 Z" id="Stroke-1" stroke="#25B7D3" stroke-width="2"></path>
                    <path d="M52.8305422,51.8331598 C52.6185208,51.6662912 52.3359249,51.7698751 52.2647548,52.0304767 L51.9237935,53.1403472 C51.801107,53.5899074 51.7004564,54.0537963 51.7004564,54.5200732 L51.7004564,64.7124931 C51.7004564,65.1784715 51.8162939,65.6426589 51.9389804,66.0922191 L52.2683282,67.2020896 C52.3394983,67.4626912 52.6051206,67.5662752 52.8168441,67.3994065 C52.9797313,67.2713446 53.0273766,67.0752217 53.0273766,66.8677553 L53.0273766,52.364811 C53.0273766,52.1573447 52.9931316,51.9612218 52.8305422,51.8331598" id="Fill-2" fill="#25B7D3"></path>
                    <path d="M43.0403366,78.4996038 L9.85333549,78.4996038 C5.79485354,78.4996038 2.50465124,75.2013362 2.50465124,71.1329057 L2.50465124,29.0187246 C2.50465124,24.9502941 5.79485354,21.6520265 9.85333549,21.6520265 L43.0403366,21.6520265 C47.0988186,21.6520265 50.3890209,24.9502941 50.3890209,29.0187246 L50.3890209,71.1329057 C50.3890209,75.2013362 47.0988186,78.4996038 43.0403366,78.4996038 L43.0403366,78.4996038 Z" id="Stroke-3" stroke="#25B7D3" stroke-width="2"></path>
                </g>
            </g>
        </g>
    </g>
</svg>